<?xml version="1.0" encoding="UTF-8"?>
<svg id="Layer_1" data-name="Layer 1" xmlns="http://www.w3.org/2000/svg" viewBox="0 0 2110.08 2032.32">
  <defs>
    <style>
      .cls-1 {
        fill: #fff;
      }
    </style>
  </defs>
  <path class="cls-1" d="M2110.08,0v2032.32H0V0h2110.08ZM1003.75,241.36c-2.57,1.66-8.09,3.91-10.24.53.2-9.19-7.58-21.7,2.51-26.44,19.67-9.26,26.75,14.34,35.16,8.26,5.12-3.7.13-26.06-5.91-29-3.93-1.91-21.55,3.71-28.1,4.59-8.16,1.1-40.99,2.16-43.94,7.94-4.54,8.9,4.74,9.59,7.61,13.56,5.59,7.73,10.69,59.93,8.73,69.9-1,5.1-8.83,8.53-5.47,16.08,2.72,4.3,42.91-2.74,50.64-3.56,6.56-.7,22,2.17,26.03-3.25s8.8-33.57-1.98-36.3c-5.42-1.25-7.95,11.99-9.95,15.26-4.64,7.6-17.13,11.39-25.33,8.59-6.43-2.19-12.23-36.73,2.63-27.57,3.5,2.16,3.2,13.67,8.55,12.53,11.07-6.16,5.31-42.71-2.8-47.06-2.54-1.36-3.15-1.33-4.82,1.04l-3.32,14.89ZM1174.74,236.33c-13.36-.6-12.08-20.66-.75-19.57,5.8.56,7.77,10.6,14.5,6.9,10.95-11.8-1.64-24.21-14.59-25.85-16.09-2.03-33.84,8.92-34.66,26.04-.21,4.4,2.5,10.06,1.33,14.76-.28,1.13-8.53,3.73-12.02,9.5-30.64,50.69,64.49,89.02,90.39,42.38,9.3-16.75-3.42-22.69-1.82-30.24,14.17-6.36,28.11-21.67,18.3-37.54-9.07-14.68-32.39-6.45-29.55,2.56l7.48,5.95c-4.85,9.6-18.08,8.42-27.42,14.75s-17.72,20.72-9.86,30.37c6.17,1.86,10.62-12.04,18.32-6.84,7.51,32.99-34.19,30.75-36.67-1.81-1.97-25.84,21.02-7.37,17.03-31.35ZM896.39,222.85c-4.48-7.17-55.32,3.15-46.95,21.01,1.56,2.03,6.99,1.5,9.89,3.57,5.87,4.19,21.47,59.81,19.95,68.14-.87,4.76-9.83,15.11,1.48,15.98,7.21.55,35-9.67,44.58-12.13,11.06-2.83,18.89,2.29,21.03-13.51,1.39-10.26-.59-33.09-14.98-27.45,5.14,14.32-12.54,35.42-22.95,19.68-7.96-12.04-10.37-43.29-17.03-57.68,0-5.49,8.21-10.49,4.99-17.61ZM786.7,257.62c-6.53,1.13-44.87,18.69-50.11,22.83-2.86,2.27-4.68,4.67-5.02,8.42.49,6.99,7.56,5.52,11.37,7.72,4.46,2.58,31.42,59.88,30.81,65.06-.44,3.76-9.8,14.71,3.01,16.45,4.34.59,35.62-14.3,41.84-17.6,27.21-14.41,33.53-33.61,23.27-63.01-8.25-23.63-28.37-44.52-55.18-39.89ZM1349.25,257.62c-25.6,4.15-34.92,30.79-25.41,53.27,3.5,8.28,12.37,13.96,14.89,19.72,6.03,13.74-14.73,15.7-21.11-2-1.76-4.88-1.91-20.65-5.36-21.55-8.79-2.3-14.4,20.22-14.46,26.02-.15,15.51,27.44,30.76,41.45,31.57,27.59,1.58,48.54-28.68,33.93-53.2-4.47-7.5-24.03-20.84-14.82-29.38,13.02-12.08,17.96,22.92,23.37,24.71,13.3,4.4,15.75-17.8,13.65-27.14-1.98-8.82-6.84-5.48-10.94-8.24-12.64-8.51-16.74-16.78-35.21-13.79ZM1416.55,404.45c2.53-2.37-2.62-23.01,10.02-29.38,5.48-.76,8.74,5.78,14.6,8.54,33.49,15.8,63.96-29.48,40.2-55.53-2.19-2.4-41.78-28.32-44.4-28.7-16.24-2.35-4.59,14.63-8,22.52-1.41,3.26-33.17,47.97-35.59,49.85-5.01,3.87-14.21.15-15.86,8.09-2.12,10.22,29.59,33.46,39.03,24.62ZM688.82,319.08c-14.47.56-42.47,21.04-53.32,31.13-21.72,20.2,1.56,14.4,10.46,24.12,4.81,5.25,35.38,48.82,35.59,52.74s-3.53,8.34-1.01,12.4c2.96,4.76,9.08,3.73,13.23,1.65,3.78-1.9,37.57-27.15,40.69-30.37,30.53-31.49-8.17-93.13-45.64-91.67ZM823.68,1021.92c-1.55,7.72,1.13,19.53,0,27.83-13.32-9.21-30.79-3.89-43.22-13.05l-4.73,6.29c-.11,4.09,12.55,21.76,15.99,25.28,4.24,4.34,21.81,14.84,23.33,17.93,5.67,11.54-12.46,39.6,15.41,36.6,13.4-1.45,6.57-13.87,9.42-23.27,3.8-5.42,30.76,1.72,37.57,2.06.98,1.05-5.48,9.94.85,15.46,3.91,3.41,28.77,11.74,34.25,11.04,9.19-1.17,15.78-30.81,34.79-28.39,24.12,11.87,46.65,25.81,71.71,35.94,36.55,14.77,77.22,28.97,115.68,36.96,1.78,1.95-12.34,43.46-13.24,51.05-4,33.82,22.04,59.55,36,88.34,9.77,20.15,16.08,42.9,25.51,62.78,13.93,29.41,33.8,49.69,28.61,86.72-2.52,18.01-53.37,77.33-69.4,89.92-23.63,18.56-43.2,18.59-38.31,55.94,2.03,15.46,16.75,10.79,26.22,10.63,6.1-.1,12.68,3.97,19.13-1.96,4.02-3.7,1.74-9.29,4.47-12.8,3.14-4.05,11.54-1.85,15.09-5.09,3.04-2.78,3.86-12.16,5.86-16.19,3.39-6.84,12.86-17.96,20.51-19.81,4.08-.98,2.13-.52,2.01,1.98-.21,4.32-.65,11.94-1.48,15.83-2.47,11.67-14.15,27.39-7.86,38.03,5.75,3.63,42.24.19,49.09-2.59,8.24-3.34,7.09-10.96,11-15.87s10-3.85,11.48-13.48c3.42-22.27-.89-34.88,9.39-57.79,16.74-37.32,54.32-67.94,64.71-108.04,5.71-22.04,5.78-51.17,4.82-74.03-.83-19.84-11.07-43.58,4.74-60.35l40.31-36.48-.07,61.46c5.47,8.59,20.01-22.09,22.12-19.25-.75,8.98-2.43,18.08-4.79,26.85-4,14.81-22.39,58.08-20.18,70.03.39,2.12.81,3.93,3.13,4.7,11.34,3.72,20.64-23.11,24.72-30.66,1.45-2.69-.15-4.71,4.81-3.73-3.02,29.22-7.5,58.87-4.83,88.31l5.61,1.7c5.95-1.87,11.62-26.67,15.54-32.44,4.6,2,4.27,23.91,5.3,29.25,5.46,28.35,30.3,60.23,55.17,74.37,4.69-3.83-14.78-46.48-13.4-55.65l27.85,38.36c4.16.81,2.91-1.93,2.92-4.83.04-13.48-16.15-49.79-20.26-66.14-12.62-50.21-.62-83.2-2.76-131.58-1.64-37.06-9.09-77.54-25.32-110.95-2.75-5.67-9.31-13.02-11.23-17.57-2.5-5.93,11.84,1.43,14.08-1.2l3.17-4.5c-10.89-8.23-21.83-14.16-30.77-24.92-4.55-5.48-7.8-14.23-12.4-18.31-4.26-3.79-14.83-6.12-17.23-9.65-3.27-4.82-1.96-14.26-3.44-19.59-12.83-46.28-37.76-61.82-54.33-97.3-4.06-8.68-3.87-19.78-9.42-27.05-8.35-10.93-34.5-17.85-46.52-24.5-8.15-4.51-13.27-11.48-20.72-15.75-6.62-3.79-14.07-4.45-20.17-8.59l15.64-20.79,26.65-53.04c6.84-2.2,6.75,4.93,9.5,6.7,10.19,6.57,21.58-18.32,9.59-26.88-6.87-4.9-12.07.75-9.47-13.37,7.25-7.73,16.89-46.51,24.27-48.66,10.94-3.19,37.76,1.83,41.55-14.15,1.39-5.87-1.96-14.14-2.34-20.02-1.91-29.73-2.8-74.81-15.21-101.86-14.64-31.92-31.4-27.96-50.1-45.88-5.61-5.38-7.16-14.13-13.59-19,13.97-8.43,45.02-20.78,47.83-38.5,4.93-31.13-26.71-40.95-51.68-33.45-3.03-8.83-9.11-31.29-17.82-35.07l-30.73-1.1c-13.46,6.18-12.97,30.96-23.72,37.87-9.64,6.19-29.55-10.55-44.98,6.81-13.89,15.63,5.51,37.29,18.68,46.79,6.03,4.35,19.96,8.85,22.66,11.89,1.4,1.57,6.38,14.81,6.41,16.65.08,5.64-22.81,17.34-28.33,20.84-3.28,2.08-5.43,6.12-9.03,8.25-8.24,4.87-21.71,5.51-29.4,10.91-5.16,3.62-6.09,11.14-8.97,12.15-10.39-2.12-27.71,6.06-35.34-.65-1.55-1.37-8.28-12.44-8.68-14.4-.78-3.84,1.46-7.76,1.01-12.3-.64-6.61-5.68-16.03-7.1-23.79-4.4-24.16-5.89-41.83,9.35-62.53,3.25-4.41,10.92-7.68,12.3-10.9,1.55-3.61-1.37-6.49-.17-9.49,1.61-4.03,54.34-52.2,61.51-57.61,3.65-2.75,15.14-10.43,19.23-7.85,8.61,5.43,8.8,20.98,20.12,21.27,5.25-5.37-24.64-44.23-29.73-49.91-8.19-9.15-19.59-25.61-31.01-14.65-13.58,13.04,11.49,17.57,12.64,21.65.13,4.47-3.77,9.13-6.54,12.29-23.69,26.96-54.31,57.64-83.8,75.45-8.96,5.41-19.28,7.96-25.72,16.56l-6.46-8.94c10.89-13.1,2.71-13.48-4.1-24.55l9.47-9.4-11.38-14.63c20.43-3.23,38.32-17.69,47.95-35.53-6.1-6.64-16.28.42-23.94.57-3.12.06-32.32-3.31-33.72-4.28-4.34-2.99,4.11-26.45-3.99-33.6-5.13,1.63-6.12,1.92-7.68-3.63l-13.16,5.44c-2.81-7.24-2.84-28.76-13.55-19.84l.07,21.76-12.48-9.16-4.14,4.33,3.2,10.58c-9.78.41-19.73-.66-29.5.26-32.62,3.06-80.26,13.75-112.64,21.75-27.14,6.71-43.19,10.01-44.21,42.26-.66,20.97,10.39,15.38,14.5,22.12,1.62,2.65,1.32,8.65,2.77,12.58,5.81,15.7,19.58,15.79,31.47,24.2,20,14.16,26.39,45.77,43.41,63.7-22.49,29.3-42.83,66.1-54.18,101.42-4.71,14.67-10.66,54.01-18.54,63.49-2.82,3.4-8.88,2.82-12.96,4.82-11.73,5.76-18.01,16.38-6.38,26.27-8.35,7.8-19.89,10.4-28.81,17.23-37.14,28.38-20.67,64.03-8.47,100.87-23.12,11.95-50.03,13.01-75.08,19.04-4.25,1.02-7.69,4.22-11.89,5.38-18.53,5.12-26.05-2.03-40.5,17.09-20.81,27.55-5.08,30.98,2.16,56.67,8.31,29.49.49,57.38,5.63,82.65,2.08,10.24,16.67,19.08,21.11,30.72,4.79,12.57,9.43,57.84,25.57,60.86,10.77,2.01,26.31-10.29,39.24-.9,10.3,7.48,12.25,47.75,29.4,42.88,4.21-1.2,13.66-21.46,17.43-26.86,13.65-19.57,39.98-33.79,6.85-50.48-7.24-3.65-18.6-4.55-22.82-7.89-2.57-2.04-10.62-16.28-11.26-19.58-1.11-5.74,3.85-21.92,3.57-32.24-.36-13.11-8.05-67.55-3.52-75.32,1.05-1.81,10.91-5.83,13.94-6.2,10.71-1.31,31.1-.67,42.37-.03,20.47,1.16,32.05,1.42,42.97,20.51.41,2.33-8.62,10.91-9.45,15.07ZM1522.02,368.79c-7.02,2.04-3.89,10.55-7.02,16.11-4.86,8.63-26.91,24.47-34.63,34.47-11.21,14.53-13.83,30.11-4.35,46.47,11.95,20.61,37.39,31.61,58.7,17.45,12.18-8.1,28.97-31.7,40.53-38.17,5.42-3.04,10.05-.69,14.51-2.76,13.22-6.14-17.21-40.58-26.7-24.62-.9,3.05,1.46,6.28,1.22,9.04-.32,3.62-30.26,34.36-35,37.64-18.64,12.92-38.5-4.62-22.92-26.75,3.7-5.26,27.97-29.22,32.93-30.42,5.81-1.41,14.73,1.81,15.96-7.24,1.37-10.12-22.65-34.31-33.23-31.23ZM571.44,417.08c-11.45.79-17.27,9.75-13.79,20.58,1.27,3.94,16.68,19.84,21.07,26.92s22.55,39.8,23.33,45.8c.6,4.66-2.5,8.72-.18,13.52,5.71,11.83,27.17-10.69,27.89-18.4,1.49-16.01-13.17-5.58-16.44-10.26-4.96-7.11,13.57-21.55,19.09-24.97,7.25,2.86,2.81,16.98,11.7,17.14,7.61.13,34.56-28.1,30.33-37.82-3.5-8.05-9.96-2.33-15.91-3.31-23.63-3.87-61.95-30.94-87.09-29.19ZM1610.87,548.85c23.42,3.53,45.41-8.83,39.89-35.06-.54-2.59-25.79-41.92-28.38-44.55-14.11-14.28-14.16.79-18.36,8.47-2.83,5.18-44.59,33.03-51.27,35.11-8.82,2.74-19.98-3.41-20.77,8.18-.58,8.54,14.19,32.77,22.31,33.65,10.5,1.14,7.54-5.88,10.02-11.03,1.86-3.88,10.51-10.08,14.53-12.38,2.21-1.27,6.02-4.58,8.07-1.61,6.8,11.82-23.27,25.63-23.92,41.47-.38,9.3,11.94,26.8,21.51,25.41s5.67-9.37,8.15-15.01c1.42-3.23,6.98-5.06,9.38-7.89,6.7-7.9,10.59-13.67,8.83-24.76ZM537.36,512.17c8.07-12.45-19.4-21.76-30.52-16.13-3.49,1.77-3.42,7.25-5.67,9.68-4.47,4.84-8.23,4.78-12.33,12.62-16.01,30.55,10.66,57.87,43.53,51.18,7.43-1.51,35.15-26.54,34.06-6.45-1.06,19.55-37.21,11.74-38.42,17.47,28.75,43.4,78.52-13.95,56.5-46.92-10.55-15.81-26.62-21.61-44.38-13.92-5.91,2.56-31.67,26.12-31.51,7.07.12-14.01,25.98-10.35,28.75-14.61ZM1779.84,1537.2c3.57-3.59,67.28,13.36,76.8,8.63,8.11-4.02,1.01-15.18-2.26-20.77-8.2-14.02-38.96-44.27-40.11-57.96-.52-6.23,4.53-14.55-5.56-17.39-8.34-2.34-38.3,18.94-26.17,28.18,5.3,4.04,10.37-1.13,19.42,9.36,2.01,2.33,7.89,9.53,4.82,12.57-8.47,4.75-49.31-9.12-64.28-6.66-5.42.89-20.37,11.68-21.84,16.62-4.17,14.02,9.79,10.31,16.1,13.86,6.9,3.89,33.65,43.71,35.06,51.46,1.18,6.48-5.01,15.14,2.26,18.7,14.4,7.04,44.77-17.95,31.85-28.01-3.04-2.36-7.59-1.34-10.81-2.62-6.69-2.65-16.45-18.15-15.29-25.97ZM357.13,1556.38c-35.66,4.95-52.08-24.95-32.33-54.37,10.23-15.24,28.68-18.95,34.89.95,3.85,12.35-5.77,40.71,18.06,30.85,9.1-3.77,16.83-23.38,11.8-31.9-2.41-4.07-6.89-4.9-9.39-7.89-9.97-11.96-10.66-18.1-27.77-24.06-66.01-22.98-104.91,65.08-48.47,98.34,15.88,9.35,57.44,18.13,53.21-11.92ZM509.1,1597.73c0-29.8-24.17-53.96-53.98-53.96s-53.98,24.16-53.98,53.96,24.17,53.96,53.98,53.96,53.98-24.16,53.98-53.96ZM1713.93,1605.86c0-29.77-24.15-53.91-53.94-53.91s-53.94,24.14-53.94,53.91,24.15,53.91,53.94,53.91,53.94-24.14,53.94-53.91ZM661.95,1644.22c12.68-12.25-20.1-26.7-30.27-21.64-8.94,4.45-.05,14.79-.38,20.58-.19,3.21-5.61,18.65-8.25,18.73-18.24-18.26-15.07-55.32-41.33-64.19-32.07-10.83-15.61,10.53-17.39,24.71-.83,6.63-18.52,48.07-22.77,52.1s-11.39,2.55-13.7,5.98c-10.63,15.78,38.73,34.68,40.06,16.61.22-2.98-2.9-5.99-3.38-9.41-1.18-8.4,3.61-24.52,12.4-27.68,3.93.91,24.15,55.7,30.09,63.98,2.04,2.85,3.63,6.01,7.94,4.9,12.48-3.24,24.98-64.27,34.26-77.23,4.73-6.6,9.88-4.7,12.71-7.43ZM1537.41,1602.91c-8.24,1.38-33.12,13.92-32.26,23.47.57,6.33,9.57,5.47,13.66,9.56,5.2,5.2,24.58,54.38,23.99,61.56-.33,4.03-5.61,9.1-2.13,14.46,5.95,8.39,44.54-7.77,48.11-15.51,6.14-13.32-8.71-11.69-14.41-18.17-4.02-4.57-22.41-48.04-22.93-54-.66-7.58,2.22-7.54,3.37-11.83,2.94-10.96-9.7-10.83-17.4-9.54ZM1461.59,1722.86c-2.27-2.04-19.38-55.09-18.92-58.11.3-1.95,2.79-3.21,4.05-4.7l17.57,13.01c22.95-4.49,5.41-33.72-8.94-37.19-5.72-1.38-18.53,6.5-25.87,8.83-12.99,4.12-23.92,5.17-36.11,8.05-14.96,3.54-15.59,44.66-.71,43.31,10.4-.94,9.3-18.77,15.66-24.49,6.14-.01,20.07,56.59,17.86,63.86-1.27,4.18-13.41,10.01-4.59,16.88,9.08,7.08,53.26-4.95,54.95-16.59,1.84-12.62-10.53-8.87-14.96-12.86ZM723.31,1654.69c-24.14,4.93-32.91,34.12-20.28,53.95,5.02,7.89,25.31,20.3,26.33,23.72,4.47,15.01-20.72,12.04-28.35-4.43-2.48-5.36-2.68-17.62-8.88-18.16-10.2-.9-11.24,18.61-10.38,25.86,2.49,20.81,40.68,30.27,58.24,27.85,25.78-3.55,39.56-34.86,23.06-55.34-7.95-9.87-41.37-22.21-20.9-32.81,14.11-1.37,17.55,23.9,27.14,24.71,13.04,1.1,11.51-30.13,2.56-35.24-3-1.71-7.28-.26-10.09-1.43-14.62-6.08-19.54-12.54-38.46-8.67ZM1295.49,1675.84c-64.83,9.75-55.31,121.63,22.13,108.46,16.01-2.72,53.92-30.72,27.61-45.45-8.35,8.15-15.79,16.8-28.76,16.47-29.77-.76-46.47-66.62-10.32-58.44,11.04,2.5,21.58,28.68,33.94,17.75,9.91-8.76-.09-36.49-10.86-38.96-3.15-.72-7.37,2.02-11.15,1.79-8.3-.5-13.14-3.04-22.58-1.62ZM907.62,1689.36c-2.52-2.07-40.98-5.23-49.76-6.9-4.89-.93-13.14-5.02-15.94-5.05-11.27-.1-30.65,31.13-18.24,37.32s18.41-12.08,24.29-12.23l4.41,2.79c-3.33,11.52-7.17,55.19-15.26,61.22-5.39,4.02-13.11,1.13-11.56,11.43,2.12,14.04,66.32,23.08,59.37,2.31-1.3-3.9-9.75-3.55-10.34-13.67-.43-7.27,5.1-43.39,7.14-51.44,5.23-20.56,12.25,7.75,15.72,10.25,19.29,13.89,23.47-25.09,10.17-36.04ZM1167.66,1707.72c1.21,1.9,9.72.59,12.31,11.65,1.83,7.79,4.39,35.14,3.99,43.02-1.07,21.39-30.49,26.94-40.03,8.34-3.41-6.65-6.8-42.55-5.33-50.24,1.36-7.1,14.76-10.58,7.8-19.41-6.28-7.97-44.94-6.09-47.91,4.41-2.15,7.62,7.87,10.31,9.23,18.91,3.52,22.22-6.9,51.49,12.51,70.02,15.92,15.19,58.96,12.68,73.99-2.98,20.51-21.37,2.31-54.48,5.68-78.77,1.17-8.47,9.56-8.51,6.92-16.24-6.02-11.18-48.59-3.55-39.17,11.28ZM998.14,1801.79c4.02-6.28-4.42-11.8-5.98-15.59-6.26-15.19,3.4-38.41,12.45-18.2,5.25,11.73.66,26.88,14.28,35.62,8.52,5.47,24.39,6.3,33.11,1.12,14.91-8.86-1.55-12.82-4.19-18.51-5.35-11.52-.47-26.89-18.69-33.17,3.73-7.54,9.77-9.59,12.13-18.55,6.07-23.05-8.41-36.08-30.37-38.01-7.47-.66-14.6,1.46-20.78,1.16-7.44-.36-35.9-9.31-35.91,5.53,0,3.47,8.64,8.33,9.19,17.76.46,7.96-3.94,53.47-6.75,59.46-3.08,6.58-12.22,6.18-9.79,14.53,3.3,11.32,46.87,13.8,51.31,6.85Z"/>
  <path d="M823.68,1021.92c.83-4.16,9.86-12.74,9.45-15.07-10.92-19.09-22.5-19.35-42.97-20.51-11.28-.64-31.66-1.28-42.37.03-3.03.37-12.89,4.39-13.94,6.2-4.53,7.77,3.16,62.21,3.52,75.32.28,10.33-4.68,26.5-3.57,32.24.64,3.3,8.68,17.54,11.26,19.58,4.22,3.34,15.58,4.24,22.82,7.89,33.13,16.69,6.8,30.91-6.85,50.48-3.77,5.4-13.22,25.67-17.43,26.86-17.15,4.87-19.1-35.4-29.4-42.88-12.93-9.39-28.47,2.91-39.24.9-16.14-3.02-20.78-48.29-25.57-60.86-4.44-11.64-19.02-20.48-21.11-30.72-5.14-25.27,2.67-53.16-5.63-82.65-7.24-25.69-22.96-29.12-2.16-56.67,14.44-19.13,21.96-11.97,40.5-17.09,4.2-1.16,7.64-4.36,11.89-5.38,25.05-6.03,51.96-7.09,75.08-19.04-12.2-36.84-28.67-72.49,8.47-100.87,8.93-6.82,20.46-9.42,28.81-17.23-11.62-9.89-5.35-20.51,6.38-26.27,4.09-2.01,10.14-1.43,12.96-4.82,7.88-9.48,13.82-48.82,18.54-63.49,11.35-35.32,31.7-72.12,54.18-101.42-17.02-17.93-23.41-49.55-43.41-63.7-11.89-8.41-25.66-8.5-31.47-24.2-1.45-3.93-1.16-9.93-2.77-12.58-4.11-6.73-15.17-1.15-14.5-22.12,1.02-32.24,17.07-35.55,44.21-42.26,32.37-8,80.02-18.7,112.64-21.75,9.77-.92,19.73.15,29.5-.26l-3.2-10.58,4.14-4.33,12.48,9.16-.07-21.76c10.71-8.93,10.74,12.6,13.55,19.84l13.16-5.44c1.56,5.55,2.55,5.27,7.68,3.63,8.09,7.15-.36,30.61,3.99,33.6,1.4.96,30.6,4.34,33.72,4.28,7.67-.15,17.84-7.21,23.94-.57-9.63,17.84-27.52,32.3-47.95,35.53l11.38,14.63-9.47,9.4c6.81,11.07,15,11.45,4.1,24.55l6.46,8.94c6.44-8.61,16.76-11.15,25.72-16.56,29.49-17.81,60.1-48.49,83.8-75.45,2.77-3.15,6.67-7.82,6.54-12.29-1.15-4.08-26.22-8.61-12.64-21.65,11.42-10.96,22.82,5.5,31.01,14.65,5.09,5.68,34.97,44.54,29.73,49.91-11.32-.29-11.51-15.84-20.12-21.27-4.09-2.58-15.58,5.1-19.23,7.85-7.17,5.4-59.9,53.58-61.51,57.61-1.2,3,1.72,5.88.17,9.49-1.38,3.22-9.06,6.5-12.3,10.9-15.25,20.69-13.76,38.37-9.35,62.53,1.41,7.75,6.45,17.18,7.1,23.79.44,4.54-1.8,8.46-1.01,12.3.4,1.97,7.13,13.04,8.68,14.4,7.63,6.71,24.95-1.47,35.34.65,2.88-1.01,3.81-8.53,8.97-12.15,7.7-5.4,21.16-6.05,29.4-10.91,3.6-2.13,5.75-6.16,9.03-8.25,5.52-3.5,28.41-15.2,28.33-20.84-.03-1.84-5.01-15.08-6.41-16.65-2.7-3.04-16.64-7.54-22.66-11.89-13.17-9.5-32.57-31.16-18.68-46.79,15.43-17.36,35.34-.62,44.98-6.81,10.75-6.91,10.27-31.69,23.72-37.87l30.73,1.1c8.7,3.78,14.79,26.24,17.82,35.07,24.98-7.5,56.62,2.32,51.68,33.45-2.81,17.71-33.86,30.06-47.83,38.5,6.43,4.88,7.98,13.62,13.59,19,18.7,17.92,35.46,13.96,50.1,45.88,12.41,27.05,13.3,72.13,15.21,101.86.38,5.89,3.73,14.15,2.34,20.02-3.79,15.98-30.61,10.97-41.55,14.15-7.38,2.15-17.02,40.93-24.27,48.66-2.6,14.13,2.61,8.47,9.47,13.37,12,8.56.6,33.45-9.59,26.88-2.75-1.77-2.67-8.9-9.5-6.7l-26.65,53.04-15.64,20.79c6.1,4.14,13.56,4.79,20.17,8.59,7.45,4.27,12.57,11.24,20.72,15.75,12.02,6.66,38.17,13.57,46.52,24.5,5.55,7.27,5.36,18.36,9.42,27.05,16.57,35.48,41.5,51.03,54.33,97.3,1.48,5.33.17,14.77,3.44,19.59,2.39,3.53,12.96,5.86,17.23,9.65,4.59,4.09,7.85,12.83,12.4,18.31,8.94,10.76,19.87,16.69,30.77,24.92l-3.17,4.5c-2.23,2.62-16.58-4.73-14.08,1.2,1.92,4.55,8.48,11.9,11.23,17.57,16.23,33.41,23.68,73.89,25.32,110.95,2.14,48.38-9.86,81.36,2.76,131.58,4.11,16.35,20.3,52.65,20.26,66.14,0,2.89,1.24,5.63-2.92,4.83l-27.85-38.36c-1.39,9.17,18.09,51.81,13.4,55.65-24.87-14.14-49.71-46.02-55.17-74.37-1.03-5.34-.69-27.25-5.3-29.25-3.92,5.77-9.59,30.56-15.54,32.44l-5.61-1.7c-2.66-29.44,1.81-59.09,4.83-88.31-4.95-.98-3.36,1.05-4.81,3.73-4.08,7.56-13.38,34.38-24.72,30.66-2.32-.76-2.74-2.57-3.13-4.7-2.21-11.95,16.18-55.21,20.18-70.03,2.37-8.77,4.04-17.87,4.79-26.85-2.11-2.84-16.65,27.84-22.12,19.25l.07-61.46-40.31,36.48c-15.82,16.77-5.58,40.51-4.74,60.35.96,22.86.89,51.98-4.82,74.03-10.39,40.1-47.97,70.72-64.71,108.04-10.28,22.91-5.96,35.51-9.39,57.79-1.48,9.63-7.67,8.69-11.48,13.48s-2.76,12.53-11,15.87c-6.84,2.77-43.33,6.21-49.09,2.59-6.29-10.64,5.39-26.36,7.86-38.03.83-3.9,1.27-11.51,1.48-15.83.12-2.5,2.07-2.96-2.01-1.98-7.65,1.85-17.12,12.97-20.51,19.81-2,4.03-2.82,13.42-5.86,16.19-3.55,3.24-11.94,1.03-15.09,5.09-2.73,3.52-.45,9.11-4.47,12.8-6.44,5.93-13.03,1.86-19.13,1.96-9.48.16-24.2,4.83-26.22-10.63-4.89-37.34,14.68-37.38,38.31-55.94,16.02-12.58,66.88-71.91,69.4-89.92,5.18-37.03-14.69-57.32-28.61-86.72-9.42-19.89-15.74-42.63-25.51-62.78-13.96-28.79-40.01-54.52-36-88.34.9-7.59,15.02-49.1,13.24-51.05-38.47-7.99-79.14-22.19-115.68-36.96-25.06-10.13-47.58-24.07-71.71-35.94-19.01-2.41-25.6,27.22-34.79,28.39-5.48.7-30.34-7.63-34.25-11.04-6.33-5.52.13-14.41-.85-15.46-6.81-.34-33.77-7.47-37.57-2.06-2.85,9.39,3.98,21.82-9.42,23.27-27.87,3.01-9.74-25.06-15.41-36.6-1.52-3.09-19.09-13.59-23.33-17.93-3.44-3.51-16.1-21.19-15.99-25.28l4.73-6.29c12.43,9.16,29.9,3.85,43.22,13.05,1.13-8.3-1.55-20.1,0-27.83ZM877.42,552.7c-1.04-5.15-.75-19.5-2.85-23.04-1.02-1.71-4.94-2.64-6.73-4.79-3.6-4.3-6.75-12.15-13.44-12.46-1.7,1.6,18.04,37.66,23.02,40.28ZM891.84,539.27v1.92c1.25-.64,1.25-1.28,0-1.92ZM1055.98,671.68l-5.65-16.39-9.76.02c-6.93,4.49,11.91,15.67,15.41,16.37ZM1155.84,711.98c-23.27-2.55-49.11-4.14-71.02-12.49-14.24-5.43-27.69-15.09-42.25-20.12.9,25.75,7.94,46,25.04,64.77,1.09,1.2.92,4.47,2.26,5.78,2.22,2.17,23.06,6.45,24.52,1.33,1.67-5.83-15.79-17.33-7.87-28.54,18.36-6.39,36.42,11.64,44.33,26.87,2.52,1.64,24.68-10.48,25.98-12.6,3.76-6.1-2.52-17.76-.98-24.99ZM1125.13,698.53c4.04,1.34,26.83,4.37,26.83-.94l-8.6-3.03-18.23,3.97ZM1133.76,784.91c5.38,1.5,25.19,0,32.64,0,2.53,0,3.32-5.6,2.57-8.25-.93-3.3-6.8-6.2-8.85-10.42-2.41-4.95-1.56-8.46-2.41-12.99-.44-2.32,1.34-3.53-2.82-2.91-9.9,1.48-31.85,10.63-29.47,23.56.48,2.62,6.36,10.46,8.35,11.01ZM683.51,969.15l-16.42,3.72c-2.5,17.9.29,36.64,3.52,54.27,2.06,11.22,6.43,31.64,9.62,42.2,1.15,3.82,3.16,9.36,7.11,11.1-2.29-20.57,3.47-42.31,2.01-62.44-1.24-17.15-11.25-31.83-5.84-48.86ZM856.32,1045.92c-2.16-1.78-13.92,6.28-11.51,9.55l7.66,1.95,3.86-11.5ZM1261.42,1429.72c-1.53-13.12,7.14-32.53,5.43-44.59-.98-6.88-10.08-17.53-13.43-25.12-10.16-23.05-7.4-45.48-13.18-69.34l-9.5-16.39c-.9,32.95,14.3,65.26,18.98,97.11,1.55,10.54.63,22.35,2.64,33.82,1.26,7.18,3.58,19.81,9.06,24.51Z"/>
  <path d="M998.14,1801.79c-4.45,6.95-48.02,4.47-51.31-6.85-2.43-8.35,6.71-7.95,9.79-14.53,2.81-5.99,7.21-51.5,6.75-59.46-.55-9.43-9.19-14.29-9.19-17.76,0-14.84,28.47-5.89,35.91-5.53,6.18.3,13.32-1.82,20.78-1.16,21.96,1.93,36.44,14.95,30.37,38.01-2.36,8.96-8.39,11.01-12.13,18.55,18.22,6.28,13.34,21.65,18.69,33.17,2.64,5.69,19.11,9.65,4.19,18.51-8.72,5.18-24.59,4.35-33.11-1.12-13.62-8.74-9.03-23.89-14.28-35.62-9.04-20.21-18.71,3-12.45,18.2,1.56,3.79,10,9.31,5.98,15.59ZM1003.7,1742.06c6.72-6.77,4.72-31.13-6.21-28.3-5.48,1.42-9.03,43.64,6.21,28.3Z"/>
  <path d="M1779.84,1537.2c-1.17,7.82,8.6,23.33,15.29,25.97,3.22,1.27,7.77.25,10.81,2.62,12.91,10.05-17.45,35.04-31.85,28.01-7.27-3.55-1.08-12.22-2.26-18.7-1.41-7.75-28.16-47.58-35.06-51.46-6.31-3.55-20.27.16-16.1-13.86,1.47-4.94,16.42-15.72,21.84-16.62,14.97-2.47,55.82,11.41,64.28,6.66,3.07-3.04-2.8-10.23-4.82-12.57-9.05-10.49-14.12-5.33-19.42-9.36-12.13-9.24,17.83-30.53,26.17-28.18,10.08,2.83,5.03,11.16,5.56,17.39,1.15,13.7,31.91,43.95,40.11,57.96,3.27,5.59,10.37,16.75,2.26,20.77-9.52,4.72-73.23-12.23-76.8-8.63Z"/>
  <path d="M661.95,1644.22c-2.83,2.73-7.99.83-12.71,7.43-9.28,12.96-21.78,74-34.26,77.23-4.31,1.12-5.9-2.05-7.94-4.9-5.94-8.27-26.17-63.06-30.09-63.98-8.79,3.16-13.58,19.28-12.4,27.68.48,3.42,3.59,6.43,3.38,9.41-1.32,18.06-50.69-.84-40.06-16.61,2.31-3.43,9.51-2.01,13.7-5.98s21.94-45.47,22.77-52.1c1.78-14.18-14.69-35.55,17.39-24.71,26.26,8.87,23.1,45.93,41.33,64.19,2.64-.08,8.06-15.52,8.25-18.73.34-5.79-8.56-16.13.38-20.58,10.17-5.06,42.95,9.39,30.27,21.64Z"/>
  <path d="M1713.93,1605.86c0,29.77-24.15,53.91-53.94,53.91s-53.94-24.14-53.94-53.91,24.15-53.91,53.94-53.91,53.94,24.14,53.94,53.91ZM1642.98,1577.85c-25.96,3.85,14.68,55.39,32.27,55.1,31.19-.52-14.06-57.8-32.27-55.1Z"/>
  <path d="M509.1,1597.73c0,29.8-24.17,53.96-53.98,53.96s-53.98-24.16-53.98-53.96,24.17-53.96,53.98-53.96,53.98,24.16,53.98,53.96ZM458.37,1566.33c-16.26,3.39-28.51,60.1-11.92,63.05,12.77,2.27,17.5-9.4,20.99-19.34,4.07-11.58,12.37-48.18-9.07-43.71Z"/>
  <path d="M1174.74,236.33c3.99,23.98-19,5.51-17.03,31.35,2.49,32.57,44.18,34.8,36.67,1.81-7.69-5.2-12.15,8.7-18.32,6.84-7.85-9.65.99-24.36,9.86-30.37,9.34-6.33,22.57-5.15,27.42-14.75l-7.48-5.95c-2.83-9.01,20.48-17.23,29.55-2.56,9.81,15.87-4.13,31.17-18.3,37.54-1.6,7.56,11.12,13.49,1.82,30.24-25.9,46.64-121.04,8.31-90.39-42.38,3.49-5.77,11.74-8.36,12.02-9.5,1.17-4.7-1.54-10.36-1.33-14.76.82-17.12,18.57-28.07,34.66-26.04,12.95,1.64,25.54,14.04,14.59,25.85-6.73,3.7-8.7-6.34-14.5-6.9-11.33-1.1-12.61,18.97.75,19.57Z"/>
  <path d="M1610.87,548.85c1.75,11.08-2.13,16.85-8.83,24.76-2.4,2.83-7.96,4.66-9.38,7.89-2.47,5.64,1.6,13.6-8.15,15.01s-21.89-16.1-21.51-25.41c.64-15.85,30.72-29.65,23.92-41.47-2.05-2.97-5.86.34-8.07,1.61-4.02,2.3-12.67,8.5-14.53,12.38-2.48,5.16.48,12.17-10.02,11.03-8.12-.88-22.9-25.11-22.31-33.65.79-11.59,11.94-5.44,20.77-8.18,6.67-2.07,48.43-29.93,51.27-35.11,4.19-7.67,4.24-22.75,18.36-8.47,2.6,2.63,27.84,41.96,28.38,44.55,5.52,26.23-16.46,38.59-39.89,35.06ZM1601.56,521.72c9.16,6.51,29.94-6.16,23.76-17.04-1.85-3.26-3.34-.47-5.43.38-6.47,2.64-11.63,7.36-18.28,9.54l-.04,7.12Z"/>
  <path d="M786.7,257.62c26.81-4.63,46.93,16.26,55.18,39.89,10.26,29.4,3.94,48.59-23.27,63.01-6.23,3.3-37.5,18.19-41.84,17.6-12.81-1.74-3.45-12.69-3.01-16.45.61-5.18-26.35-62.49-30.81-65.06-3.81-2.2-10.88-.73-11.37-7.72.34-3.75,2.15-6.15,5.02-8.42,5.23-4.15,43.58-21.71,50.11-22.83ZM774.22,280.65c-1.92,1.51-1.6,4.41-.95,6.62,2.6,8.77,19.8,42.57,25.07,51.83,8.66,15.24,20.06,5.26,19.74-8.06-.37-15.31-25.05-65.19-43.85-50.39Z"/>
  <path d="M688.82,319.08c37.47-1.46,76.17,60.18,45.64,91.67-3.12,3.22-36.91,28.47-40.69,30.37-4.16,2.09-10.27,3.12-13.23-1.65-2.52-4.06,1.23-8.4,1.01-12.4s-30.78-47.49-35.59-52.74c-8.9-9.72-32.18-3.92-10.46-24.12,10.85-10.1,38.86-30.57,53.32-31.13ZM675.34,343.82c-4.37.79-11.33,5.91-7.68,10.63l37.81,50.6c7.8,5.82,14.31-2.97,14.66-10.71.7-15.67-27.93-53.58-44.79-50.52Z"/>
  <path d="M723.31,1654.69c18.91-3.86,23.84,2.59,38.46,8.67,2.81,1.17,7.1-.29,10.09,1.43,8.95,5.12,10.48,36.34-2.56,35.24-9.59-.81-13.03-26.08-27.14-24.71-20.48,10.6,12.94,22.94,20.9,32.81,16.5,20.48,2.72,51.79-23.06,55.34-17.57,2.42-55.75-7.04-58.24-27.85-.87-7.25.17-26.76,10.38-25.86,6.19.55,6.4,12.8,8.88,18.16,7.62,16.47,32.82,19.44,28.35,4.43-1.02-3.41-21.31-15.82-26.33-23.72-12.62-19.84-3.86-49.02,20.28-53.95Z"/>
  <path d="M1167.66,1707.72c-9.41-14.82,33.15-22.45,39.17-11.28,2.64,7.72-5.75,7.77-6.92,16.24-3.37,24.29,14.82,57.41-5.68,78.77-15.03,15.66-58.07,18.17-73.99,2.98-19.41-18.52-8.99-47.8-12.51-70.02-1.36-8.6-11.39-11.28-9.23-18.91,2.97-10.5,41.63-12.37,47.91-4.41,6.96,8.83-6.44,12.31-7.8,19.41-1.47,7.69,1.92,43.58,5.33,50.24,9.54,18.6,38.96,13.05,40.03-8.34.39-7.88-2.17-35.23-3.99-43.02-2.59-11.06-11.11-9.75-12.31-11.65Z"/>
  <path d="M357.13,1556.38c4.23,30.05-37.33,21.27-53.21,11.92-56.45-33.26-17.54-121.32,48.47-98.34,17.12,5.96,17.81,12.1,27.77,24.06,2.5,3,6.98,3.82,9.39,7.89,5.03,8.52-2.69,28.13-11.8,31.9-23.84,9.86-14.21-18.49-18.06-30.85-6.2-19.9-24.66-16.19-34.89-.95-19.75,29.41-3.33,59.32,32.33,54.37Z"/>
  <path d="M1295.49,1675.84c9.44-1.42,14.28,1.12,22.58,1.62,3.78.23,7.99-2.52,11.15-1.79,10.78,2.47,20.77,30.2,10.86,38.96-12.36,10.93-22.9-15.25-33.94-17.75-36.15-8.19-19.45,57.67,10.32,58.44,12.97.33,20.41-8.32,28.76-16.47,26.31,14.73-11.59,42.73-27.61,45.45-77.43,13.17-86.96-98.71-22.13-108.46Z"/>
  <path d="M1522.02,368.79c10.58-3.08,34.6,21.11,33.23,31.23-1.22,9.05-10.15,5.83-15.96,7.24-4.95,1.2-29.22,25.16-32.93,30.42-15.58,22.13,4.28,39.66,22.92,26.75,4.74-3.28,34.67-34.03,35-37.64.24-2.76-2.12-5.99-1.22-9.04,9.48-15.97,39.92,18.48,26.7,24.62-4.46,2.07-9.09-.28-14.51,2.76-11.55,6.48-28.35,30.08-40.53,38.17-21.31,14.16-46.75,3.16-58.7-17.45-9.48-16.36-6.86-31.95,4.35-46.47,7.72-10,29.77-25.84,34.63-34.47,3.13-5.56,0-14.07,7.02-16.11Z"/>
  <path d="M1349.25,257.62c18.47-2.99,22.57,5.28,35.21,13.79,4.1,2.76,8.96-.58,10.94,8.24,2.1,9.34-.36,31.54-13.65,27.14-5.42-1.79-10.35-36.79-23.37-24.71-9.21,8.54,10.36,21.88,14.82,29.38,14.61,24.52-6.34,54.78-33.93,53.2-14.01-.8-41.61-16.05-41.45-31.57.06-5.8,5.67-28.32,14.46-26.02,3.44.9,3.6,16.67,5.36,21.55,6.37,17.69,27.13,15.73,21.11,2-2.53-5.76-11.39-11.44-14.89-19.72-9.51-22.48-.19-49.13,25.41-53.27Z"/>
  <path d="M537.36,512.17c-2.76,4.26-28.63.6-28.75,14.61-.16,19.05,25.59-4.51,31.51-7.07,17.76-7.69,33.83-1.89,44.38,13.92,22.01,32.97-27.75,90.32-56.5,46.92,1.21-5.73,37.36,2.08,38.42-17.47,1.09-20.09-26.63,4.94-34.06,6.45-32.86,6.68-59.53-20.64-43.53-51.18,4.11-7.84,7.87-7.78,12.33-12.62,2.25-2.44,2.18-7.92,5.67-9.68,11.12-5.63,38.59,3.68,30.52,16.13Z"/>
  <path d="M1003.75,241.36l3.32-14.89c1.67-2.37,2.29-2.4,4.82-1.04,8.12,4.35,13.88,40.91,2.8,47.06-5.35,1.14-5.05-10.37-8.55-12.53-14.86-9.16-9.06,25.37-2.63,27.57,8.2,2.79,20.69-1,25.33-8.59,2-3.28,4.53-16.51,9.95-15.26,10.77,2.72,6.16,30.66,1.98,36.3s-19.47,2.56-26.03,3.25c-7.73.82-47.91,7.86-50.64,3.56-3.36-7.55,4.47-10.98,5.47-16.08,1.96-9.97-3.14-62.17-8.73-69.9-2.87-3.98-12.15-4.66-7.61-13.56,2.95-5.78,35.78-6.84,43.94-7.94,6.55-.88,24.17-6.5,28.1-4.59,6.04,2.93,11.04,25.29,5.91,29-8.41,6.08-15.49-17.53-35.16-8.26-10.09,4.75-2.3,17.25-2.51,26.44,2.15,3.38,7.67,1.13,10.24-.53Z"/>
  <path d="M1461.59,1722.86c4.43,3.99,16.8.23,14.96,12.86-1.69,11.64-45.87,23.67-54.95,16.59-8.83-6.88,3.32-12.71,4.59-16.88,2.21-7.27-11.72-63.87-17.86-63.86-6.36,5.72-5.26,23.55-15.66,24.49-14.88,1.35-14.25-39.77.71-43.31,12.19-2.88,23.11-3.93,36.11-8.05,7.35-2.33,20.16-10.21,25.87-8.83,14.35,3.47,31.9,32.7,8.94,37.19l-17.57-13.01c-1.26,1.49-3.76,2.76-4.05,4.7-.46,3.02,16.65,56.07,18.92,58.11Z"/>
  <path d="M907.62,1689.36c13.3,10.95,9.11,49.93-10.17,36.04-3.47-2.5-10.49-30.81-15.72-10.25-2.05,8.04-7.57,44.16-7.14,51.44.59,10.12,9.04,9.77,10.34,13.67,6.95,20.77-57.25,11.73-59.37-2.31-1.56-10.31,6.17-7.41,11.56-11.43,8.09-6.03,11.93-49.7,15.26-61.22l-4.41-2.79c-5.87.15-11.43,18.65-24.29,12.23s6.98-37.42,18.24-37.32c2.8.02,11.05,4.12,15.94,5.05,8.78,1.67,47.24,4.82,49.76,6.9Z"/>
  <path d="M571.44,417.08c25.14-1.74,63.46,25.33,87.09,29.19,5.96.97,12.41-4.74,15.91,3.31,4.23,9.73-22.72,37.95-30.33,37.82-8.89-.15-4.44-14.28-11.7-17.14-5.53,3.42-24.06,17.85-19.09,24.97,3.26,4.68,17.93-5.75,16.44,10.26-.72,7.71-22.18,30.23-27.89,18.4-2.32-4.8.78-8.86.18-13.52-.78-6-18.95-38.73-23.33-45.8s-19.81-22.98-21.07-26.92c-3.48-10.83,2.34-19.78,13.79-20.58ZM589.45,452.92l10.52,19.1c4.96-2.24,7.55-6.32,10.39-10.73.78-5.22-16.72-8.62-20.91-8.36Z"/>
  <path d="M1416.55,404.45c-9.44,8.84-41.15-14.4-39.03-24.62,1.65-7.94,10.85-4.22,15.86-8.09,2.42-1.87,34.18-46.58,35.59-49.85,3.41-7.89-8.23-24.87,8-22.52,2.62.38,42.21,26.3,44.4,28.7,23.76,26.05-6.71,71.33-40.2,55.53-5.86-2.76-9.12-9.3-14.6-8.54-12.64,6.37-7.5,27.01-10.02,29.38ZM1456.59,334.08c-2.53.42-19.68,21.99-17.7,26.74,9.49,14.96,37.63-19.07,17.7-26.74Z"/>
  <path d="M896.39,222.85c3.21,7.12-5,12.13-4.99,17.61,6.67,14.39,9.07,45.65,17.03,57.68,10.41,15.74,28.1-5.36,22.95-19.68,14.39-5.64,16.37,17.19,14.98,27.45-2.14,15.8-9.97,10.67-21.03,13.51-9.58,2.46-37.37,12.68-44.58,12.13-11.31-.87-2.35-11.21-1.48-15.98,1.52-8.33-14.08-63.96-19.95-68.14-2.9-2.07-8.33-1.54-9.89-3.57-8.37-17.86,42.47-28.18,46.95-21.01Z"/>
  <path d="M1537.41,1602.91c7.71-1.29,20.34-1.42,17.4,9.54-1.15,4.29-4.03,4.25-3.37,11.83.52,5.96,18.91,49.43,22.93,54,5.7,6.48,20.56,4.85,14.41,18.17-3.57,7.75-42.16,23.91-48.11,15.51-3.48-5.36,1.79-10.43,2.13-14.46.59-7.18-18.79-56.36-23.99-61.56-4.1-4.09-13.1-3.24-13.66-9.56-.85-9.55,24.02-22.08,32.26-23.47Z"/>
  <path class="cls-1" d="M1155.84,711.98c-1.55,7.23,4.73,18.89.98,24.99-1.3,2.11-23.46,14.24-25.98,12.6-7.91-15.22-25.97-33.26-44.33-26.87-7.92,11.21,9.54,22.71,7.87,28.54-1.47,5.12-22.3.84-24.52-1.33-1.34-1.3-1.16-4.58-2.26-5.78-17.1-18.77-24.14-39.02-25.04-64.77,14.56,5.03,28.02,14.69,42.25,20.12,21.92,8.36,47.75,9.94,71.02,12.49Z"/>
  <path class="cls-1" d="M683.51,969.15c-5.41,17.03,4.6,31.71,5.84,48.86,1.46,20.13-4.3,41.87-2.01,62.44-3.96-1.75-5.96-7.29-7.11-11.1-3.19-10.57-7.56-30.98-9.62-42.2-3.24-17.64-6.03-36.37-3.52-54.27l16.42-3.72Z"/>
  <path class="cls-1" d="M1261.42,1429.72c-5.48-4.7-7.8-17.32-9.06-24.51-2.01-11.47-1.09-23.28-2.64-33.82-4.67-31.84-19.88-64.16-18.98-97.11l9.5,16.39c5.78,23.86,3.03,46.29,13.18,69.34,3.35,7.59,12.45,18.24,13.43,25.12,1.72,12.06-6.96,31.46-5.43,44.59Z"/>
  <path class="cls-1" d="M1133.76,784.91c-1.99-.55-7.86-8.39-8.35-11.01-2.38-12.93,19.57-22.07,29.47-23.56,4.16-.62,2.39.59,2.82,2.91.85,4.53,0,8.04,2.41,12.99,2.05,4.22,7.92,7.11,8.85,10.42.75,2.65-.04,8.25-2.57,8.25-7.45,0-27.26,1.5-32.64,0Z"/>
  <path class="cls-1" d="M877.42,552.7c-4.98-2.62-24.72-38.68-23.02-40.28,6.69.31,9.84,8.16,13.44,12.46,1.79,2.14,5.71,3.08,6.73,4.79,2.1,3.54,1.81,17.88,2.85,23.04Z"/>
  <path class="cls-1" d="M1055.98,671.68c-3.49-.7-22.33-11.88-15.41-16.37l9.76-.02,5.65,16.39Z"/>
  <path class="cls-1" d="M1125.13,698.53l18.23-3.97,8.6,3.03c0,5.31-22.79,2.28-26.83.94Z"/>
  <path class="cls-1" d="M856.32,1045.92l-3.86,11.5-7.66-1.95c-2.41-3.27,9.35-11.33,11.51-9.55Z"/>
  <path class="cls-1" d="M891.84,539.27c1.25.64,1.25,1.28,0,1.92v-1.92Z"/>
  <path class="cls-1" d="M1003.7,1742.06c-15.23,15.34-11.69-26.87-6.21-28.3,10.93-2.84,12.93,21.52,6.21,28.3Z"/>
  <path class="cls-1" d="M1642.98,1577.85c18.21-2.7,63.46,54.58,32.27,55.1-17.59.29-58.23-51.25-32.27-55.1Z"/>
  <path class="cls-1" d="M458.37,1566.33c21.44-4.47,13.15,32.14,9.07,43.71-3.5,9.94-8.22,21.6-20.99,19.34-16.59-2.94-4.34-59.66,11.92-63.05Z"/>
  <path class="cls-1" d="M1601.56,521.72l.04-7.12c6.65-2.19,11.81-6.91,18.28-9.54,2.09-.85,3.58-3.64,5.43-.38,6.18,10.89-14.6,23.56-23.76,17.04Z"/>
  <path class="cls-1" d="M774.22,280.65c18.8-14.8,43.48,35.08,43.85,50.39.32,13.32-11.08,23.3-19.74,8.06-5.27-9.27-22.46-43.07-25.07-51.83-.66-2.21-.97-5.11.95-6.62Z"/>
  <path class="cls-1" d="M675.34,343.82c16.86-3.06,45.49,34.86,44.79,50.52-.35,7.74-6.85,16.53-14.66,10.71l-37.81-50.6c-3.65-4.73,3.32-9.84,7.68-10.63Z"/>
  <path class="cls-1" d="M589.45,452.92c4.19-.26,21.69,3.14,20.91,8.36-2.84,4.42-5.43,8.49-10.39,10.73l-10.52-19.1Z"/>
  <path class="cls-1" d="M1456.59,334.08c19.93,7.67-8.21,41.7-17.7,26.74-1.98-4.75,15.17-26.32,17.7-26.74Z"/>
</svg>